<svg width="311" height="245" viewBox="0 0 311 245" fill="none" xmlns="http://www.w3.org/2000/svg">
<path fill-rule="evenodd" clip-rule="evenodd" d="M282.324 120.12C282.324 120.12 233.983 42.7321 221.816 22.8289C216.331 14.9945 204.059 17.7173 204.092 28.9091V117.94C204.105 122.214 201.539 122.208 200.067 120.107C200.067 120.107 151.725 42.719 139.558 22.8158C134.08 14.988 121.782 17.6976 121.808 28.8961V117.358C121.808 119.459 120.041 121.232 117.908 121.232H75.1886C41.0631 121.232 24.7662 97.2255 24.812 73.0419C24.8578 48.7535 41.3446 24.8055 73.4084 24.7596H99.3264V17.6518H73.4018C36.7304 17.7107 17.7565 45.553 17.7041 73.0288C17.6518 100.603 36.606 128.334 75.1821 128.34H117.901C123.929 128.34 128.91 123.418 128.91 117.364V28.8764C128.897 24.8251 132.019 24.4193 133.616 26.697C145.796 46.6133 194.143 124.021 194.143 124.021C199.864 132.189 211.226 128.707 211.193 117.927V28.8961C211.18 24.8316 214.282 24.4389 215.873 26.7166C228.053 46.6395 276.401 124.04 276.401 124.04C282.049 132.11 293.673 128.851 293.64 117.947V0.549805H286.539V117.953C286.552 122.162 283.836 122.273 282.324 120.12Z" fill="white"/>
<path fill-rule="evenodd" clip-rule="evenodd" d="M99.3264 41.6458H74.305C32.607 41.7047 28.235 104.366 77.2175 104.314H99.8565C102.691 104.307 104.634 101.997 104.621 99.379V26.9851C104.621 -0.0914648 139.218 -13.0832 157.531 18.3653C176.23 50.475 186.944 69.0889 186.944 69.0889V27.0047C186.944 -0.0718306 221.482 -13.0636 239.788 18.385C258.487 50.4946 269.456 69.1019 269.456 69.1019V0.549942H286.532V117.954C286.545 122.162 283.829 122.273 282.317 120.12C282.317 120.12 233.976 42.7323 221.809 22.829C216.324 14.9947 204.052 17.7174 204.085 28.9093V117.94C204.098 122.214 201.533 122.208 200.06 120.107C200.06 120.107 151.719 42.7192 139.552 22.8159C134.074 14.9881 121.776 17.6978 121.802 28.8962V117.358C121.802 119.459 120.035 121.233 117.901 121.233H75.182C41.0565 121.233 24.7596 97.2257 24.8054 73.042C24.8512 48.7536 41.338 24.8056 73.4018 24.7598H99.3199V41.6589L99.3264 41.6458Z" fill="#ED1C24"/>
<path d="M310.506 160.79H0V244.755H310.506V160.79Z" fill="black"/>
<path fill-rule="evenodd" clip-rule="evenodd" d="M73.4019 17.6384C36.7305 17.6973 17.7566 45.5396 17.7043 73.0154C17.6519 100.589 36.6061 128.32 75.1822 128.327H117.901C123.929 128.327 128.91 123.405 128.91 117.351V28.8761C128.897 24.8248 132.019 24.419 133.616 26.6967C145.796 46.613 194.143 124.02 194.143 124.02C199.864 132.188 211.226 128.707 211.193 117.927V28.8958C211.18 24.8313 214.282 24.4387 215.873 26.7163C228.053 46.6392 276.401 124.04 276.401 124.04C282.049 132.11 293.673 128.851 293.64 117.947V0.549514H310.67V120.597C310.762 151.483 274.568 156.339 259.613 131.626L228.413 79.9531V120.571C228.505 151.457 192.304 156.313 177.356 131.599L146.156 79.9269V116.664C146.182 135.448 135.128 145.632 117.94 145.619H77.99C-24.2359 145.566 -25.2111 0.536424 76.6155 0.542969H99.3265V17.6384H73.4019Z" fill="#ED1C24"/>
<path fill-rule="evenodd" clip-rule="evenodd" d="M243.46 231.581V173.671H259.515V201.736H259.717L277.435 173.671H293.489L275.916 201.238L297.94 231.581H280.059L259.717 203.601H259.515V231.581H243.46Z" fill="white"/>
<path fill-rule="evenodd" clip-rule="evenodd" d="M168.71 231.581V173.671H191.826C195.439 173.671 198.646 174.057 201.467 174.829C204.282 175.602 206.664 176.708 208.601 178.141C210.539 179.574 212.024 181.283 213.052 183.253C214.079 185.229 214.596 187.428 214.596 189.857C214.596 193.142 213.654 195.865 211.762 198.031C209.871 200.198 206.847 201.998 202.698 203.431C204.151 204.066 205.486 205.29 206.697 207.096C207.914 208.902 208.909 210.735 209.688 212.581C210.467 214.426 211.618 217.332 213.157 221.292C214.695 225.252 216.154 228.681 217.535 231.581H200.826L196.977 220.736C195.459 216.377 194.215 213.294 193.253 211.488C192.291 209.681 191.237 208.51 190.086 207.973C188.94 207.436 187.166 207.168 184.764 207.168V231.587H168.71V231.581ZM184.764 197.161H189.83C192.533 197.161 194.66 196.565 196.212 195.381C197.763 194.196 198.542 192.475 198.542 190.21C198.542 185.858 195.57 183.678 189.627 183.678H184.764V197.161Z" fill="white"/>
<path d="M103.312 173.435H87.2968V183.128H103.312V173.435Z" fill="white"/>
<path d="M136.685 173.435H120.67V183.128H136.685V173.435Z" fill="white"/>
<path fill-rule="evenodd" clip-rule="evenodd" d="M87.2771 187.709H103.332V213.542C103.332 215.859 104.091 217.751 105.61 219.217C107.128 220.683 109.268 221.41 112.037 221.41C117.836 221.41 120.735 218.556 120.735 212.842V187.716H136.79V211.775C136.79 214.95 136.292 217.816 135.298 220.369C134.303 222.921 132.758 225.094 130.67 226.888C128.582 228.681 125.984 230.042 122.882 230.965C119.779 231.888 116.154 232.353 112.004 232.353C106.977 232.353 102.619 231.646 98.9272 230.219C95.2358 228.799 92.3691 226.56 90.3271 223.51C88.285 220.46 87.2706 216.606 87.2706 211.939V187.716L87.2771 187.709Z" fill="white"/>
<path fill-rule="evenodd" clip-rule="evenodd" d="M28.4313 231.581V183.678H12.298V173.671H60.6195V183.678H44.4861V231.581H28.4313Z" fill="white"/>
</svg>
