<svg width="152" height="152" viewBox="0 0 152 152" fill="none" xmlns="http://www.w3.org/2000/svg">
<rect width="152" height="152" fill="white"/>
<path d="M139.303 85.4612C139.303 102.88 139.288 120.301 139.333 137.72C139.336 138.971 139.043 139.33 137.688 139.33C105.003 139.29 72.3153 139.29 39.6304 139.333C38.2605 139.336 37.9883 138.968 38.0004 137.728C38.0699 131.794 38.0639 125.859 38.0004 119.924C37.9883 118.824 38.3028 118.577 39.4157 118.586C47.0577 118.635 54.7027 118.577 62.3447 118.644C63.6481 118.656 63.884 118.281 63.881 117.118C63.8326 106.357 63.8719 95.5954 63.8265 84.8373C63.8205 83.5748 64.0655 83.1076 65.5261 83.1221C73.0683 83.2005 80.6105 83.186 88.1558 83.1308C89.3745 83.1221 89.7586 83.363 89.7525 84.6109C89.695 95.372 89.7465 106.133 89.686 116.891C89.6799 118.232 89.9249 118.67 91.446 118.653C98.9368 118.566 106.431 118.58 113.924 118.644C115.261 118.656 115.657 118.374 115.654 117.022C115.609 89.1788 115.63 61.3359 115.588 33.4958C115.585 32.1057 115.83 31.6443 117.42 31.6675C124.207 31.7691 130.999 31.7458 137.785 31.6791C139.076 31.6675 139.336 32.0302 139.333 33.2085C139.291 50.0408 139.303 67.4594 139.303 85.4612Z" fill="#E52629"/>
<path d="M12.7 66.4896C12.7 49.0766 12.7151 31.6666 12.6667 14.2536C12.6637 12.9684 12.9992 12.6638 14.3262 12.6667C46.9923 12.7044 79.6585 12.7044 112.325 12.6696C113.6 12.6696 114.02 12.8901 113.999 14.2217C113.909 20.1518 113.933 26.0876 113.987 32.0176C113.996 33.1085 113.76 33.4566 112.542 33.4479C104.904 33.387 97.2657 33.4392 89.6273 33.3928C88.4938 33.387 88.1281 33.6046 88.1341 34.7767C88.1916 43.457 88.1432 52.1403 88.1916 60.8207C88.1976 62.0101 88.0223 62.4656 86.5956 62.4482C78.9573 62.3641 71.3189 62.3873 63.6806 62.4337C62.5894 62.4395 62.2569 62.2335 62.266 61.1166C62.3234 52.3376 62.269 43.5615 62.3295 34.7825C62.3385 33.6075 61.9698 33.3841 60.8332 33.3899C53.1949 33.4363 45.5566 33.4479 37.9182 33.3812C36.6427 33.3696 36.3827 33.6945 36.3857 34.8782C36.425 62.7557 36.4008 90.6333 36.4583 118.514C36.4613 120.075 35.9867 120.347 34.4905 120.33C27.756 120.249 21.0214 120.249 14.2899 120.333C12.8964 120.35 12.6728 119.941 12.6758 118.723C12.712 101.313 12.7 83.8996 12.7 66.4896Z" fill="#231F20"/>
</svg>
