<svg width="84" height="140" viewBox="0 0 84 140" fill="none" xmlns="http://www.w3.org/2000/svg">
<g clip-path="url(#clip0_834_69)">
<path d="M60.6461 57.5309C74.8739 73.9313 36.7595 91.1957 57.6581 111.018C55.973 106.663 61.2889 100.597 65.5972 93.4251C72.824 81.397 77.6882 68.1246 60.6461 57.5309ZM34.2926 -1.52588e-05C44.7159 28.6704 -20.7249 49.5122 16.0866 90.5218C4.30832 61.1428 60.1423 38.0717 34.2926 -1.52588e-05Z" fill="#EF3737"/>
<path d="M45.0459 23.9179C64.1205 50.8947 -6.7925 77.5431 37.628 115.286C24.5295 87.2728 85.4709 53.6079 45.0459 23.9179Z" fill="#EF3737"/>
<path d="M76.8543 121.594H0C34.9701 155.242 75.0302 127.418 76.8543 121.594Z" fill="#19181C"/>
</g>
<defs>
<clipPath id="clip0_834_69">
<rect width="84" height="140" fill="white"/>
</clipPath>
</defs>
</svg>
