<svg width="134" height="151" viewBox="0 0 134 151" fill="none" xmlns="http://www.w3.org/2000/svg">
<g clip-path="url(#clip0_834_84)">
<path d="M108.574 6.916C122.097 14.0549 129.651 27.2384 129.651 45.4024C129.651 76.1013 108.173 91.2355 73.1779 91.2355H57.8613V126.905C57.8613 138.148 58.8544 139.658 73.1728 140.093V149.609H0V140.093C11.932 139.658 12.9251 138.148 12.9251 126.905V22.6987C12.9251 11.4557 11.932 9.94587 0 9.51013V0H68.4051C84.1117 0 99.6259 2.16347 108.574 6.916ZM65.816 78.4827C81.9229 78.4827 83.7115 57.2989 83.7115 44.1104C83.7115 20.1096 75.1589 12.7579 66.6115 12.7579C58.6568 12.7579 57.8613 13.8421 57.8613 18.164V69.4032C57.8613 76.3192 59.052 78.4827 65.816 78.4827ZM190.638 36.1963C227.767 36.1963 243.762 57.8917 243.762 93.7891C243.762 129.529 227.62 151.387 190.638 151.387C153.956 151.387 137.519 129.367 137.519 93.7891C137.519 58.0539 153.809 36.1963 190.638 36.1963ZM190.638 141.973C205.904 141.973 208.25 115.327 208.25 93.7891C208.25 73.5275 205.904 45.6051 190.638 45.6051C175.378 45.6051 173.032 73.5275 173.032 93.7891C173.032 115.327 175.378 141.973 190.638 141.973ZM301.315 77.3579C316.282 83.5797 332.13 92.036 332.424 114.689C332.13 134.474 321.272 151.068 289.869 151.387C277.542 151.387 264.485 148.833 255.527 142.292L253.333 109.42H260.087C269.182 131.277 277.988 141.649 291.045 141.968C299.41 142.13 304.106 136.704 304.253 128.886C304.106 121.869 301.026 114.208 285.03 107.185C264.779 98.2528 253.627 88.844 253.627 71.2931C253.627 50.2309 268.3 36.1912 293.249 36.1912C302.936 36.1912 315.405 37.468 324.799 43.3707V73.3653H318.197C310.86 52.1461 302.642 45.6 293.542 45.6C286.348 45.6 281.362 50.8693 281.362 58.8443C281.362 67.6197 290.462 72.884 301.32 77.3528L301.315 77.3579ZM399.132 45.6101H396.051V129.849C396.051 138.143 396.781 139.262 407.644 139.577V146.599H350.846V139.582C361.709 139.262 362.449 138.143 362.449 129.849V45.6H359.358C348.653 45.6 344.538 53.0987 339.7 70.0061H332.946V36.1912H425.549V70.0112H418.801C413.957 53.1037 409.848 45.6051 399.137 45.6051L399.132 45.6101ZM506.342 131.277C508.541 137.981 509.423 138.614 517.494 139.577V146.594H462.759V139.577L469.508 138.938C473.029 138.614 473.323 136.065 472.001 131.277L466.721 111.492H443.242L437.811 132.078C436.635 136.542 437.517 138.457 440.891 138.776L449.256 139.577V146.594H412.574V139.577C420.199 138.938 421.521 138.138 423.578 132.078C426.365 123.941 431.062 108.781 436.194 91.7117L452.778 36.1912H478.754L494.603 91.2304C499.447 108.143 503.698 123.302 506.342 131.277ZM445.735 101.283H464.664L456.152 65.8667H455.275L445.735 101.283Z" fill="#E84F50"/>
</g>
<defs>
<clipPath id="clip0_834_84">
<rect width="134" height="151" fill="white"/>
</clipPath>
</defs>
</svg>
